<svg xmlns="http://www.w3.org/2000/svg" width="1280" height="1112"><path fill="#000000" d="m53.907 702.746 2.485-.01c2.776-.008 5.553-.002 8.33.004l6.022-.012c5.56-.01 11.12-.008 16.68-.004 6.033.003 12.065-.006 18.098-.014q15.881-.017 31.762-.016 17.046 0 34.092-.012l2.172-.001 8.759-.007a141702 141702 0 0 1 103.77-.042q27.057-.005 54.115-.016l22.27-.008h2.485a467102 467102 0 0 1 186.107-.034q84.146-.004 168.292-.061c41.826-.028 83.652-.053 125.477-.06h2.55a365077 365077 0 0 1 80.168-.005c26.224-.001 52.448-.017 78.672-.04a55131 55131 0 0 1 90.148-.01h2.166c11.334.006 22.67-.006 34.004-.024q16.7-.027 33.4 0c5.961.01 11.922.01 17.883-.01q8.12-.026 16.243.009 2.932.007 5.863-.014c2.641-.017 5.28-.004 7.922.018l2.31-.038c3.986.068 5.68.524 8.816 3.071 1.97 2.51 2.72 3.474 2.657 6.59l.04 1.937c-1.068 3.314-2.699 5.339-5.665 7.063-4.162.744-8.284.63-12.501.568l-3.845.002c-3.47.001-6.94-.028-10.412-.063-3.63-.031-7.26-.034-10.89-.04-6.871-.016-13.741-.057-20.612-.107a5956 5956 0 0 0-23.47-.108c-16.09-.053-32.18-.14-48.27-.252l-.6 1.819-1.588 4.796c-8.395 24.688-20.118 48.414-33.32 70.844-1.4 2.384-2.776 4.78-4.144 7.182-5.622 9.813-11.759 19.17-18.348 28.359l-1.642 2.29a566 566 0 0 1-22.327 28.995c-2.836 3.453-5.574 6.973-8.281 10.527-10.476 13.728-21.663 26.885-33.454 39.497-3.909 4.207-7.555 8.584-11.132 13.078-2.21 2.669-4.568 5.122-6.977 7.613-7.061 7.74-9.636 17.82-9.46 28.187 1.212 12.469 4.968 24.961 14.96 33.188 11.908 8.04 25.664 10.676 39.68 7.977 10.61-3.225 21.365-10.19 27.137-19.875 4.744-9.218 6.076-18.788 3.965-29.063-2.192-6.217-5.319-9.99-10.969-13.227-6.436-2.999-13.084-3.604-19.898-1.417-3.816 1.78-6.935 3.923-9.602 7.23-1.85 5.551-1.851 10.883.75 16.187 1.375 2.493 2.833 4.585 4.562 6.875C993 975 993 975 993 978.625c-1.109 3.742-1.792 5.18-5 7.375-4.098 1.214-6.14 1.386-10.063-.375-7.14-6.381-12.23-15.428-13.32-24.984-.34-10.377 1.838-19.64 8.5-27.793 8.263-8.109 18.395-11.851 29.82-12.223 13.343.431 24.207 4.92 33.438 14.687 10.312 12.404 11.83 26.141 10.625 41.688-2.101 15.387-11.14 26.981-23.008 36.383-14.647 10.92-31.463 15.492-49.594 13.152-16.887-2.954-31.158-9.557-41.273-23.785-5.459-8.34-8.465-17.23-11.125-26.75-8.565 15.324-15.222 31.026-20.953 47.613-3.319 9.56-6.934 18.71-11.61 27.7l-1.317 2.549c-2.767 5.146-5.932 9.71-9.603 14.253-1.172 1.456-2.268 2.972-3.33 4.51-7.382 8.015-17.978 13.622-28.91 14.41-11.798-.182-21.745-4.734-30.148-12.808-8.44-8.827-10.487-19.951-10.34-31.829.778-12.532 4.624-24.224 10.211-35.398a823 823 0 0 0-14.364 4.874c-19.748 6.897-39.553 12.647-59.9 17.5-24.509 5.857-33.566 18.816-46.622 39.59-11.066 17.554-22.316 32.853-43.282 38.282-18.585 3.657-37.277 2.136-53.582-8.059-8.085-5.82-13.783-12.92-19.125-21.25l-1.825-2.786q-2.66-4.069-5.3-8.151c-5.884-9.058-11.76-17.937-19-26l-1.448-1.693c-4.398-4.827-7.954-6.601-14.298-7.827l-2.533-.56a472 472 0 0 0-5.371-1.15c-4.746-.992-9.471-2.076-14.198-3.157l-2.876-.653c-8.67-1.994-17.175-4.39-25.651-7.085l-1.966-.624c-11.102-3.553-21.954-7.645-32.659-12.251.315.643.63 1.286.953 1.95 7.428 15.683 12.636 34.35 7.86 51.675-4.194 11.37-11.633 19.049-22.563 24.145-10.936 4.14-20.667 3.908-31.25-.833-23.895-12.846-33.456-42.01-42-65.937-4.803-13.402-10.2-25.949-17.209-38.362C347 977 347 977 347 975h-2l-.188 3.25c-1.65 12.972-9.946 27.224-19.992 35.559-10.114 7.513-22.227 12.259-34.82 13.191-.862.066-1.725.131-2.613.2-17.692.693-34.661-6.315-47.918-17.817-12.391-11.96-18.368-25.744-18.844-43.008.398-13.658 5.35-25.908 15.375-35.375 10.4-8.352 21.87-10.713 35-10 10.45 1.327 19.047 6.06 26 14 5.6 9.032 8.53 17.858 6.54 28.453-2.228 8.33-6.545 17.258-13.54 22.547-4.003 1.144-6.015 1.46-9.813-.313-4.069-3.139-4.069-3.139-4.593-5.57-.288-6.879 2.118-9.988 6.406-15.117 2.706-4.588 2.192-8.964 1-14-2.315-5.112-5.287-7.311-10.371-9.305-6.315-1.67-12.96-1.802-19.004.867-5.857 3.471-10.052 8.669-12.156 15.145-2.09 10.218-.277 20.09 5.156 28.918 7.34 10.233 17.21 16.428 29.375 19.375 10.043.897 18.738.209 28-4l2.68-1.215c9.55-5.007 14.935-13.59 18.629-23.496 3.46-11.459 2.404-23.351-2.309-34.289-2.627-4.302-5.668-8.176-8.938-12l-1.429-1.683c-4.172-4.869-8.535-9.546-12.927-14.216-4.07-4.353-7.87-8.871-11.597-13.523-2.129-2.602-4.343-5.094-6.609-7.578-8.475-9.335-16.137-19.318-23.84-29.29a580 580 0 0 0-7.039-8.92C236.636 838.324 224.061 819.447 213 800l-1.12-1.94c-11.063-19.21-20.85-38.965-29.193-59.498l-.875-2.145a971 971 0 0 1-2.425-6.038l-1.4-3.514C177 724 177 724 177 721l-2.05.011q-24.687.133-49.375.196c-7.959.02-15.918.049-23.877.095q-10.404.06-20.81.074c-3.673.006-7.346.018-11.02.047-4.099.032-8.197.033-12.297.031l-3.696.044-3.383-.017-2.938.011c-3.323-.64-4.488-1.86-6.554-4.492-1.073-3.934-1.42-6.055.25-9.813 3.693-4.616 7.179-4.473 12.657-4.441M196 721c8.298 20.947 8.298 20.947 17.625 41.375l1.006 2.065C230.247 796.39 249.9 826.933 273 854l1.415 1.668c14.068 16.555 28.74 33.398 45.366 47.453a311 311 0 0 1 5.438 4.727c67.28 59.466 151.37 96.77 259.781 113.152l2.928.316C653.329 1028.057 719.79 1019.828 782 999l5.324-1.738C816.271 987.63 843.698 974.337 870 959l2.695-1.56c11.883-6.9 23.235-14.304 34.305-22.44l2.078-1.516c8.222-6.01 16.179-12.239 23.89-18.89 2.906-2.486 5.862-4.89 8.844-7.282 4.02-3.267 7.696-6.707 11.301-10.421 1.852-1.856 3.77-3.564 5.762-5.266 6.92-5.968 13.287-12.5 19.223-19.441 1.909-2.192 3.871-4.327 5.849-6.456A322 322 0 0 0 1000 847l1.462-1.8c27.708-34.124 49.688-73.199 66.6-113.7l.908-2.16c1.2-2.938 2.03-5.134 2.03-8.34h-97l-12 22c-7.679 8.639-12.105 12.831-23.207 13.501q-2.841.03-5.681.002l-3.199.018c-3.531.015-7.061 0-10.593-.013q-3.84.006-7.678.019-8.343.02-16.686.004c-8.27-.015-16.54-.008-24.811.004-14.772.022-29.544.02-44.316.008q-19.39-.015-38.78-.008l-2.599.001-10.443.004c-32.652.012-65.304.001-97.956-.02q-43.515-.029-87.029.001a94351 94351 0 0 1-110.797.013q-19.379-.005-38.758.011-22.032.019-44.066-.013-12.33-.019-24.663.003c-6.135.01-12.27-.001-18.406-.02q-3.726-.007-7.453.007c-3.372.012-6.744 0-10.117-.019l-2.934.029c-8.757-.097-15.784-2.866-22.26-8.814-2.788-3.055-4.763-6.487-6.756-10.093l-1.248-2.172c-2.703-4.747-5.113-9.55-7.564-14.453zm714 235-1.515 1.047c-11.84 8.14-23.89 15.687-36.424 22.713-21.988 12.395-37.39 27.82-45.026 52.338-2.65 9.658-3.195 17.624.965 26.902 3.016 5.22 7.4 7.269 13 9 6.108 1.135 10.958-.667 16-4 2.687-2.27 2.687-2.27 5-5l1.355-1.348c10-10.482 14.672-25.362 19.55-38.672 6.26-17.04 12.615-33.65 21.626-49.433l1.277-2.24q1.23-2.138 2.487-4.259c.96-1.65 1.841-3.346 2.705-5.048zm-552 1c1.46 4.076 3.457 7.747 5.528 11.533 8.724 16.044 15.527 32.889 21.523 50.124 6.152 17.625 14.25 40.194 31.949 49.343 6.208 1.425 10.367.992 16-2 5.566-3.64 8.388-7.631 10-14 2.116-16.991-4.072-32.456-14-46-8.81-11.22-19.108-18.791-31.625-25.5-10.05-5.49-19.688-11.418-29.202-17.79l-2.728-1.823-2.39-1.619c-2.122-1.418-2.122-1.418-5.055-2.268m265.125 108.562c-3.432 3.937-3.531 6.727-3.465 11.829.545 4.183 2.252 6.794 5.34 9.609 4.4 2.656 8 3.594 13.008 2.707 4.623-1.64 7.866-4.972 10.492-9.02 1.055-5.671.455-10.124-2.563-15.062-7.611-6.802-15.254-6.799-22.812-.063M675.063 17c9.107 8.65 15.363 19.635 22 30.188 6.33 10.079 6.33 10.079 13.755 19.36a89 89 0 0 1 3.936 4.72c6.357 7.511 13.261 8.93 22.507 10.742 4.272.841 8.52 1.798 12.77 2.74l2.583.564C773.887 90.01 794.499 97.728 815 105l-1.207-2.86c-6.793-16.32-11.983-34.897-6.23-52.452 4.963-10.83 12.734-17.452 23.562-22.063 9.525-3.175 20.078-2.95 29.328 1.004 24.098 12.973 34.033 42.965 42.574 67.066 3.239 9.133 6.594 18.094 10.723 26.868l1.105 2.362c1.991 4.115 4.102 7.614 7.145 11.075l.629-2.605c4.426-16.983 12.796-31.718 28.305-40.895 16.672-8.156 35.26-10.155 53.066-4.5 11.213 4.25 19.737 10.412 28 19 .614.594 1.227 1.189 1.86 1.8 9.18 9.537 12.073 22.855 12.453 35.638-.26 13.63-4.839 24.565-14.086 34.488-9.874 9.198-21.47 11.676-34.645 11.355-10.693-.84-19.08-5.28-26.394-13.094-6.636-8.021-8.985-16.943-8.188-27.187 1.564-8.562 5.567-17.023 11.875-23.125 4.278-2.567 6.19-2.658 11.125-1.875 3.87 2.58 4.823 4.13 5.75 8.688-.269 4.93-3.237 7.988-6.11 11.8-2.47 3.783-3.188 7.038-2.64 11.512 1.364 4.681 3.242 7.397 7.063 10.438 6.863 3.65 15.184 3.904 22.648 1.796 6.266-3.036 9.457-8.013 12.289-14.234 2.964-9.31.83-19.288-3-28-6.423-10.61-16.277-17.335-28-21-12.498-2.97-25.032-.243-36.23 5.816-10.191 6.817-15.362 17.452-17.77 29.184-1.226 11.776.034 23.387 7.5 32.938q2.23 2.548 4.5 5.062a681 681 0 0 1 2.941 3.484c4.602 5.473 9.226 10.802 14.371 15.774 2.942 3.036 5.524 6.368 8.172 9.66a353 353 0 0 0 6.92 8.19c4.564 5.261 9.068 10.57 13.409 16.017l1.33 1.613c1.628 2.08 2.822 3.613 2.966 6.301-1.68 2.969-4.116 5.016-6.672 7.211l-1.576 1.39A516 516 0 0 1 990 252c-3.104-1.354-4.915-2.771-7.062-5.375-7.357-8.66-15.108-16.89-23.125-24.937l-1.979-1.993c-4.448-4.434-9.072-8.602-13.834-12.695q-1.624-1.424-3.246-2.852C931.81 196.348 922.52 189.082 913 182l-2.204-1.646c-17.04-12.672-34.923-23.706-53.458-34.048a805 805 0 0 1-5.979-3.38C752.603 88.15 632.527 76.768 503.46 106.989 464.204 118.462 425.966 134.714 391 156l-2.72 1.655C375.02 165.787 362.349 174.546 350 184l-1.952 1.488A462 462 0 0 0 328.875 201l-1.556 1.327c-9.728 8.394-19.03 17.215-28.094 26.317a1745 1745 0 0 1-4.664 4.659c-4.904 4.901-9.71 9.83-14.148 15.167C279 250 279 250 276 252l-2.336-2.152-3.039-2.786-1.54-1.42c-2.828-2.62-2.828-2.62-6.085-4.642 1.571-5.258 4.959-8.892 8.438-13l1.899-2.272A2142 2142 0 0 1 279 219l3.055-3.652a551 551 0 0 1 14.777-16.899c3.024-3.416 5.853-6.978 8.703-10.539a102 102 0 0 1 5.524-6.039c9.306-9.415 14.865-19.282 15.191-32.934-.203-12.085-4.288-23.65-12.312-32.75-8.904-8.23-21.867-11.739-33.723-11.5-11.87 1.154-23.393 6.477-31.613 15.184-7.724 10.267-9.698 20.596-8.602 33.129 1.829 6.554 5.234 11.135 10.898 14.879 6.237 3.327 12.252 3.747 19.102 2.121 4.441-1.446 7.88-3.226 10.5-7.187 2.006-4.248 2.515-8.218 1.5-12.813-1.32-2.736-2.808-5.212-4.492-7.738-2.38-3.57-3.54-5.391-3.383-9.762.985-3.938 1.435-5.35 4.875-7.5 3.965-.951 7.367-.975 10.93 1.152 6.781 6.164 11.607 15.823 12.308 24.95.245 11.618-2.255 20.283-10.238 28.898-7.796 7.55-17.42 10.357-28.125 10.438-10.665-.181-18.494-2.859-26.875-9.438l-1.871-1.453c-8.717-7.688-13.526-20.123-14.34-31.492-.458-14.633 2.75-28.048 12.461-39.18 12.055-12.692 26.72-23.3 44.867-24.113 17.372-.407 33.66 2.85 47.195 14.55 10.112 9.707 15.793 19.957 19.11 33.57.381 2.087.381 2.087 1.578 3.118 7.915-14.96 14.301-30.077 20-46 8.537-23.706 18.462-50.558 42.738-62.09 9.283-3.735 20.67-3.039 29.77.836 9.629 4.845 16.379 11.013 20.93 20.942 6.097 18.767-.1 38.037-7.438 55.312l2.186-.775c13.756-4.859 27.545-9.595 41.502-13.85l3.683-1.125a246 246 0 0 1 20.656-5.168l4.593-.968c2.914-.612 5.83-1.16 8.762-1.673 13.427-2.609 20.773-10.764 28.431-21.727l1.312-1.964 1.488-2.16c3.316-4.858 6.433-9.829 9.512-14.84 10.158-16.489 21.655-31.167 41.438-36Q617.775 4.342 620 4l2.184-.371c18.878-2.579 38.111.976 52.879 13.371m-52.375 10.563C619.44 32.252 619.017 36.38 620 42c2.497 4.613 5.896 8.04 10.938 9.688 4.54.73 8.162-.338 12.062-2.688 3.587-3.205 5.25-5.813 6-10.5.237-4.284-.484-6.93-3-10.5-3.978-4.262-6.982-5.799-12.824-6.133-4.728.289-7.399 2.272-10.489 5.695m208.437 21.562c-5.484 6.082-6.687 12.996-6.398 21.008 1.894 19.866 13.78 37.675 28.436 50.63 4.833 3.81 10.149 6.577 15.587 9.424q3.585 1.925 7.156 3.875c.595.325 1.19.649 1.804.982 7.82 4.294 15.271 9.163 22.743 14.03A191 191 0 0 0 912 156c-1.581-4.361-3.802-8.255-6.125-12.25-7.526-13.245-13.311-26.647-18.379-41.013-10.611-33.245-10.611-33.245-33.7-57.948-8.163-3.296-16.248-1.542-22.671 4.336M405 55.281c-9.957 13.535-15.792 29.47-21.437 45.157-6.616 18.33-14.804 36.685-25.716 52.89-.28.551-.56 1.103-.847 1.672l1 2 1.555-1.145c11.137-8.005 22.98-14.98 34.945-21.667l2.009-1.125c2.781-1.555 5.565-3.104 8.358-4.637 6.486-3.688 11.818-8.201 17.133-13.426l1.867-1.828c11.919-12.633 20.646-30.954 20.41-48.477-.614-5.967-2.638-11.663-7.214-15.695-12.024-7.852-23.302-4.259-32.063 6.281"/><path fill="#000000" d="M645.375 92.188c4.023 2.811 6.543 6.107 8.375 10.687 1.004 8.538-.407 14.241-5.75 21.125.693.23 1.387.461 2.101.7 41.082 13.745 72.531 29.946 92.946 70.195 3.287 6.731 6.267 13.51 5.953 21.105l2.176.809c11.284 4.76 22.71 13.658 29.05 24.238 1.675 4.228 1.417 8.746.157 13.07-2.422 5.51-6.379 9.588-11.383 12.883a96 96 0 0 1-6 2l.105 2.563c.351 14.701.351 14.701-5.132 20.628-3.958 3.682-6.865 5.766-11.973 7.809v146h-27l-1-148c-22.13-11.065-46.552-16.065-71.32-16.203l-2.587-.021q-4.109-.025-8.218-.026l-2.84-.002c-25.975.03-51.002 2.689-75.066 13.018C555 296 555 296 551 297v149h-27l.067-13.184c.066-14.373.077-28.745.06-43.118-.009-8.715 0-17.43.055-26.144q.072-11.395.028-22.792a822 822 0 0 1 .032-12.063c.042-3.79.037-7.576-.005-11.366q-.01-2.08.032-4.16c.226-7.972.226-7.972-3.47-14.713-2.514-2.01-5.092-3.724-7.799-5.46-4.348-4.173-5.928-7.458-6.098-13.453l.036-3.797.027-3.828L507 269l-2.254-.34c-6.616-1.59-11.813-7.078-15.613-12.52-2.633-4.975-2.63-9.368-1.133-14.702 5.838-10.034 15.161-18.147 25.938-22.5 3.266-1.71 3.99-2.764 5.445-6.235a156 156 0 0 0 1.745-6.136C525.804 189.064 536.604 173.932 549 161l2.563-2.687L554 156l1.516-1.535c15.178-14.485 37.8-22.04 57.498-27.866 2.682-.809 5.335-1.696 7.986-2.599l-2.375-2.375c-3.762-4.545-4.939-9.999-4.434-15.836 1.094-5.145 3.154-9.852 7.485-13.012 7.65-4.57 15.832-5.171 23.699-.59M638 99l1 2.688c1.65 5.625 1.157 11.51 1 17.312 4.77-3.613 4.77-3.613 7-9-.148-3.63-.562-5.441-2.812-8.312-2.157-1.664-3.522-2.307-6.188-2.688m15 42 1.031 1.441C665.156 158.507 670.926 175 675 194l-1.882-.208c-38.51-3.754-76.42-.261-113.118 12.208v1c9.622-.555 19.153-1.695 28.713-2.896 48.542-6.029 97.586-.887 145.287 8.896-2.972-20.806-18.654-40.65-34.74-53.376C686.905 150.514 668.658 141 653 141m-44.187 82c-2.423 2.924-3.272 5.245-3.813 9l2.848-.219c40.997-2.853 89.901-3.127 126.59 18.219 2.606 1.363 2.606 1.363 5.312-.187 2.277-1.768 2.277-1.768 4.25-3.813-.283-3.893-1.277-5.83-4.187-8.375-5.615-4.67-12.228-7.582-18.813-10.625 12.68 1.481 28.49 7.335 36.828 17.5 2.424 5.17 1.664 10.94 1.172 16.5 5.887-.724 9.306-2.327 13-7 1.133-2.767 1.393-5.039 1-8-5.984-12.748-21.284-18.592-33.707-23.145-24.175-8.5-47.92-12.23-73.495-12.17-2.861.003-5.72-.021-8.581-.046-15.842-.055-36.814-.098-48.404 12.361M674 253v4c4.686 2.127 9.122 3.66 14.156 4.832l4.102.982q3.16.748 6.323 1.48c33.712 7.847 33.712 7.847 41.138 19.374 1.225 2.413 2.315 4.806 3.281 7.332 5.488-2.395 5.488-2.395 9-7 .684-3.556.71-5.845-1.219-8.984C738.511 260.083 717.705 252.45 699 250c-3.168-.183-6.327-.23-9.5-.25l-2.512-.062c-5.114-.033-8.513.552-12.988 3.312m-533.887-83.074C162.703 179.717 182.59 194.838 201 211l2.219 1.918c4.502 3.904 8.92 7.902 13.344 11.894A578 578 0 0 0 223 230.5c4.717 4.11 9.356 8.307 14 12.5l5 4.5 12.508 11.258q2.46 2.212 4.922 4.422a1794 1794 0 0 1 15.104 13.73c4.792 4.397 9.624 8.748 14.466 13.09a1985 1985 0 0 1 17.534 15.91c3.987 3.659 8 7.288 12.029 10.902q3.785 3.402 7.562 6.813a634 634 0 0 0 8.75 7.75c3.966 3.452 7.83 7.013 11.698 10.573a474 474 0 0 0 10.447 9.318c2.291 2.007 4.54 4.058 6.793 6.109 4.487 4.056 9.123 7.893 13.84 11.68C380 371 380 371 381.468 372.777c1.539 1.48 1.539 1.48 4.097 1.297l2.997-.387c14.49-1.56 14.49-1.56 19.5.688C410 376 410 376 411 378c.41 5.399.396 10.058-2 15v3c14.348 12.002 31.912 11.157 49.545 11.477 25.203.476 25.203.476 30.455 5.523.572 3.86.404 6.173-1.312 9.688C475.713 432.99 455.666 430.61 441 430c-5.8-.455-11.38-1.512-17-3l-2.216-.586C410.382 423.266 400.872 418.441 391 412l-2-1c-2.349.795-4.631 1.657-6.937 2.563C350.016 425.378 313.862 428.283 280 431l-3.627.299c-65.046 4.904-190.658-.414-244.322-41.451-6.51-5.866-10.557-12.51-11.367-21.266-.46-14.534 3.83-25.793 13.691-36.394 7.355-6.817 13.684-7.652 23.527-7.817 14.488 1.156 29.029 8.041 42.514 13.012 47.427 17.427 95.657 30.831 145.209 40.805l2.76.56c17.863 3.594 35.325 5.642 53.553 5.565l2.386-.001c14.718-.02 29.102-1.19 43.676-3.312v-2a122 122 0 0 0-5.812-5.062l-1.796-1.495c-4.482-3.723-9.007-7.396-13.525-11.076-6.354-5.246-12.57-10.658-18.807-16.041q-2.873-2.477-5.748-4.951l-1.782-1.542c-2.444-2.103-4.843-4.042-7.53-5.833l-1.434 1.13a1666 1666 0 0 1-6.566 5.12l-2.254 1.777C270.028 350.87 270.028 350.87 263 351c-7.244-3.757-13.32-9.98-19.254-15.5-2.656-2.418-5.383-4.688-8.184-6.937-4.535-3.659-8.819-7.51-13.081-11.477a190 190 0 0 0-9.981-8.586c-4.519-3.636-8.78-7.468-13.022-11.416a186 186 0 0 0-9.916-8.522c-4.779-3.844-9.255-7.933-13.728-12.123a180 180 0 0 0-10.272-8.877c-5.021-4.027-9.688-8.355-14.37-12.765-3.463-3.243-6.985-6.331-10.692-9.297-4.357-3.486-8.441-7.178-12.5-11a248 248 0 0 0-15.18-13.156c-5.477-4.552-10.631-9.469-15.82-14.344 4.84-8.242 10.457-15.396 16.737-22.549 1.1-1.264 2.174-2.551 3.243-3.842 6.573-7.88 12.232-13.925 23.133-10.683M126 191q-2.409 2.622-4.812 5.25l-1.37 1.488c-2.426 2.657-4.721 5.337-6.818 8.262 1.557 3.893 4.014 6.061 7.125 8.813l1.507 1.34A944 944 0 0 0 126 220l2.012 1.785a746 746 0 0 0 9.242 7.996l3.621 3.094 1.844 1.575a457 457 0 0 1 10.469 9.238 219 219 0 0 0 10.125 8.625c4.813 3.89 9.335 8.016 13.848 12.243 4.213 3.923 8.603 7.563 13.093 11.167 3.01 2.495 5.885 5.115 8.746 7.777 4.632 4.31 9.421 8.35 14.352 12.32 2.62 2.158 5.14 4.393 7.648 6.68 4.244 3.863 8.624 7.51 13.086 11.117 2.6 2.126 5.159 4.29 7.708 6.477A797 797 0 0 0 250 327l1.665 1.397a289 289 0 0 0 4.835 3.916l2.844 2.3c2.535 1.665 2.535 1.665 5.136.965 3.194-2 5.74-4.438 8.332-7.14l1.522-1.538c2.539-2.102 2.539-2.102 3.666-4.9l-3.516-.7c-9.292-1.912-17.909-4.117-26.484-8.3-1.328-.61-1.328-.61-2.684-1.23-15.793-7.817-29.295-22.46-40.586-35.758-2.145-2.495-4.376-4.904-6.605-7.324a218 218 0 0 1-9.375-10.938c-5.366-6.636-11.184-12.82-17.075-18.987a397 397 0 0 1-4.421-4.743C155.51 221.633 140.959 212.973 126 205c6.208 1.948 12.138 4.254 18.063 6.938l2.275 1.013a200 200 0 0 1 11.096 5.365L161 220l2-1c-7.824-6.391-15.656-12.774-23.562-19.062l-1.655-1.334c-3.753-2.967-7.598-5.319-11.783-7.604M47 351c-3.798 3.695-4.907 6.706-5 12 1.648 4.67 3.778 7.41 8 10 4.033 1.1 6.232 1.27 10.188-.125 4.326-2.884 6.371-5.258 7.75-10.312.073-4.19-.625-6.093-2.938-9.563-5.5-5.653-11.433-6.378-18-2m75 4-.44 1.886c-3.236 13.743-6.96 27.086-11.9 40.318A164 164 0 0 0 108 402l2.691-.176c14.154-.5 27.361 2.821 40.985 6.399C165.64 411.73 180.672 412.54 195 411l3-2-3.812-.7C174.93 404.674 155.9 400.897 142 386c-3-4.464-3-4.464-3-7 6.781 1.253 13.369 2.854 19.984 4.793l5.728 1.65 2.988.865c51.462 14.843 99.288 22.909 152.786 16.307 5.216-.636 10.266-.784 15.514-.615l3 7h2q.506-3.093 1-6.187l.563-3.481c.373-2.844.471-5.474.437-8.332l-2.265.184C272.795 396.575 209.773 381.344 145 362l-2.08-.62A1791 1791 0 0 1 122 355m1021-184.828c7.168 5.17 12.58 11.938 18 18.828l1.577 1.993a474 474 0 0 1 4.673 6.07l1.486 1.912c3.323 4.482 3.323 4.482 3.044 7.057-1.309 3.302-4.052 5.35-6.655 7.655l-1.781 1.612c-4.367 3.919-8.889 7.62-13.465 11.29-4.043 3.385-7.85 7-11.687 10.614-4.293 4.02-8.755 7.747-13.348 11.422-3.4 2.84-6.62 5.839-9.844 8.875a249 249 0 0 1-15.223 13.191c-3.201 2.662-6.24 5.464-9.277 8.309-4.76 4.459-9.665 8.638-14.754 12.723-3.01 2.495-5.885 5.115-8.746 7.777-3.709 3.452-7.485 6.765-11.437 9.938-4.185 3.365-8.146 6.894-12.063 10.562a252 252 0 0 1-14.523 12.563c-4.398 3.6-8.668 7.347-12.94 11.097l-1.85 1.617-1.644 1.445c-2.612 2.163-4.03 3.267-7.48 3.34C994.203 348.056 985.04 339.086 977 332l-2.812 2.438c-3.123 2.681-6.302 5.285-9.5 7.875A254 254 0 0 0 954 351.5c-4.212 3.834-8.564 7.446-12.988 11.031a653 653 0 0 0-10.45 8.781l-1.791 1.527c-3.047 2.613-5.978 5.272-8.771 8.161l2.93.184 3.945.253 3.867.247c2.979.203 5.937.494 8.905.82 5.093.513 10.143.689 15.26.734l2.768.03c19.848.172 38.837-.178 58.325-4.268q2.312-.459 4.625-.912c54.595-10.692 107.37-26.219 159.676-45.065l1.96-.705a1368 1368 0 0 0 8.927-3.248c11.4-4.149 24.406-8.424 36.124-3.07 10.084 5.81 16.796 14.878 20.13 25.914 2.692 10.055 2.468 20.031-2.66 29.285-17.236 25.135-68.665 29.036-96.487 34.284-32.221 5.971-64.636 10.75-97.295 13.517l-3.283.288c-51.34 4.13-115.135 1.66-163.187-18.71-3.215-.735-4.64-.073-7.53 1.422a287 287 0 0 0-5.75 3.75c-16.618 10.567-35.63 13.471-55 13.625l-3.696.042c-9.875-.052-20.797-.654-28.554-7.417-2.63-3.418-3.368-5.706-3-10 12.257-6.746 28.077-5.328 41.732-5.57 11.838-.262 22.208-.783 32.268-7.43l1.887-1.215A194 194 0 0 0 861 395l-.656-1.687c-1.953-5.353-3.009-9.615-2.344-15.313 1.543-2.71 1.543-2.71 4-5 2.81-.408 4.97-.525 7.75-.375l2.055.043c2.817.08 5.521.197 8.29.752 3.949.783 5.508.842 8.925-1.412a93 93 0 0 0 2.793-2.883 887 887 0 0 1 3.12-3.094l1.559-1.566c2.17-2.108 4.51-3.966 6.883-5.84 5.73-4.61 11.055-9.6 16.414-14.629 2.969-2.783 6.009-5.468 9.09-8.125 2.919-2.575 5.767-5.224 8.621-7.871 4.106-3.807 8.241-7.563 12.477-11.227 2.538-2.224 5.03-4.498 7.523-6.773 3.79-3.456 7.61-6.865 11.48-10.23 4.047-3.546 8.027-7.165 12.02-10.77 9.492-8.572 9.492-8.572 13.875-12.375 3.915-3.41 7.737-6.918 11.558-10.433 5.62-5.168 11.304-10.266 16.989-15.364 5.067-4.55 10.102-9.134 15.117-13.742a1353 1353 0 0 1 11.91-10.781 744 744 0 0 0 6.858-6.289c66.26-61.23 66.26-61.23 85.693-49.844m-9.062 24.516-1.865 1.475q-3.041 2.413-6.073 4.837l-2.148 1.716a2193 2193 0 0 0-6.415 5.159l-2.017 1.62c-3.692 2.994-7.126 6.078-10.42 9.505 6.92-2.054 13.337-5.314 19.857-8.367 5-2.31 9.79-4.323 15.143-5.633l-3.375 1.984c-20.27 12.056-37.696 25.638-52.379 44.262-3.151 3.864-6.544 7.483-9.944 11.127-2.667 2.86-5.305 5.732-7.864 8.69-22.064 25.42-43.744 45.186-78.438 49.937q1.716 1.716 3.434 3.43a561 561 0 0 1 3.351 3.39l1.84 1.868 1.727 1.761c3.008 2.85 3.008 2.85 6.953 3.488 3.591-1.249 6.039-3.437 8.82-5.937q1.74-1.519 3.48-3.035l1.74-1.528c2.32-2.014 4.703-3.945 7.092-5.875 4.812-3.917 9.53-7.934 14.233-11.982q5.858-5.04 11.767-10.017c6.598-5.568 13.119-11.224 19.634-16.888a2851 2851 0 0 1 5.863-5.073c5.483-4.737 10.956-9.475 16.316-14.352 3.271-2.97 6.62-5.793 10.063-8.562 4.814-3.892 9.338-8.02 13.853-12.248a180 180 0 0 1 10.272-8.877c5.066-4.066 9.809-8.415 14.529-12.871 3.91-3.688 7.923-7.228 12.033-10.692-2.751-4.322-5.711-8.085-9.187-11.875l-2.668-2.93L1141 190c-2.403 0-5.175 3.189-7.062 4.688M1204 352c-2.011 3.503-2.978 5.96-3.062 10 1.452 4.103 3.839 7.09 7.062 10 4.506 1.502 8.342 1.716 12.75-.187 3.685-2.97 4.965-5.692 6.125-10.25.149-4.243-.475-6.08-2.875-9.563-3.876-3.425-6.968-4.68-12.043-4.379-3.433.665-5.39 2.052-7.957 4.379m-67.613 4.957-4.161 1.358-2.234.739c-46.552 15.33-101.204 33.048-150.539 33.114l-2.703.01q-2.823.007-5.647.007c-2.804.002-5.608.02-8.412.04-12.672.038-25.1-.802-37.691-2.225q-.017 2.14-.027 4.281l-.016 2.408c.056 3.024.496 5.902 1.043 8.873l.563 3.13L927 411c2.19-3.285 2.998-6.207 4-10l3.464.367c37.993 3.965 75.966 7.27 113.536-1.367l2.229-.507c21.334-4.874 42.388-10.634 63.297-17.09l2.255-.69a565 565 0 0 0 4.146-1.291c3.237-.995 5.634-1.422 9.073-1.422-1.513 6.894-5.736 10.743-11.367 14.637-9.348 5.78-18.565 9.106-29.258 11.55l-3.312.788c-5.34 1.25-10.617 2.377-16.063 3.025 10.631 7.087 29.367 2.842 41.277.57 6.08-1.272 12.097-2.82 18.1-4.412 10.181-2.68 20.062-4.579 30.623-4.158-1.355-4.73-2.788-9.424-4.395-14.074-2.925-8.497-5.506-16.874-7.224-25.707-.437-2.246-.437-2.246-1.381-5.219-3.963-1.321-5.665-.357-9.613.957M242 743h10l2.203 4.11C264.22 765.692 274.68 783.838 287 801l1.665 2.325c6.925 9.631 14.03 18.98 21.84 27.91a159 159 0 0 1 3.333 4.089c5.943 7.483 12.425 14.247 19.2 20.974 1.834 1.824 3.658 3.66 5.482 5.495 6.856 6.864 13.866 13.185 21.48 19.207q1.636 1.384 3.25 2.793c6.173 5.375 12.542 10.404 19.125 15.27.73.54 1.46 1.082 2.21 1.639a242 242 0 0 0 4.559 3.253 139 139 0 0 1 5.976 4.544c10.129 7.816 18.258 8.944 30.798 8.784q2.81.02 5.619.052a1078 1078 0 0 0 15.323.002c5.523-.019 11.047.02 16.57.052 10.807.052 21.613.05 32.42.027a7201 7201 0 0 1 26.363 0l3.796.006 7.636.014c17.08.027 34.158.037 51.237.007l2.021-.003 16.246-.03c21.116-.04 42.231-.021 63.347.045a16929 16929 0 0 0 78.89.073l3.781-.004c8.77-.006 17.54.016 26.31.05 10.698.041 21.395.04 32.094-.017 5.453-.027 10.904-.036 16.357.008 5.003.04 10.003.023 15.006-.036q2.697-.018 5.396.026c13.748.219 22.046-3.735 32.852-12.143 2.367-1.838 4.816-3.548 7.275-5.26a692 692 0 0 0 4.356-3.215l2.38-1.764c9.94-7.433 19.203-15.523 28.338-23.923a231 231 0 0 1 6.282-5.5c9.038-7.862 17.47-16.597 25.187-25.75l2.555-2.89c22.086-25.081 41.311-53.547 55.761-83.7 1.762-3.567 3.68-6.975 5.684-10.41h10c-1.607 5.509-4.089 10.382-6.75 15.438l-1.455 2.764C1007.707 778.228 997.433 794.46 986 810l-2.29 3.148c-8.732 11.846-18.007 23.275-28.077 34.008a244 244 0 0 0-5.895 6.621c-4.03 4.626-8.327 8.96-12.676 13.285l-2.302 2.315A263 263 0 0 1 920 883q-1.643 1.441-3.281 2.887C908.136 893.384 899.216 900.3 890 907l-2.026 1.484C825.304 954.242 751.096 981.447 674 989l-2.707.29c-11.996 1.125-24.068.954-36.106.96l-3.648.002c-29.053-.026-56.997-2.557-85.539-8.252l-3.269-.651C479.054 968.33 419.204 939.844 368 900l-2.75-2.137c-15.394-12.162-29.733-25.274-43.625-39.113l-2.559-2.545c-4.895-4.907-9.57-9.93-14.066-15.205l-2.668-3.062c-21.853-25.479-39.853-53.88-55.52-83.5l-1.462-2.764c-.44-.842-.878-1.685-1.33-2.553l-1.185-2.268C242 745 242 745 242 743M58.234 453.748l2.48-.009c2.755-.007 5.51 0 8.264.007l5.997-.01a6313 6313 0 0 1 16.565 0c5.997.005 11.993-.002 17.99-.008q15.777-.013 31.556-.007 16.934.007 33.866-.002l2.16-.001 8.706-.005a143892 143892 0 0 1 100.648-.015h2.452q26.884.003 53.77-.004l12.272-.002 12.33-.003q70.074-.014 140.148-.009h2.622l28.948.003h2.64l10.57.002q83.604.008 167.208-.021l44.757-.015q39.964-.012 79.93-.014h2.533a577888 577888 0 0 1 79.667.003q39.083 0 78.167-.017a91993 91993 0 0 1 91.72.004q16.89.005 33.78-.011 16.592-.014 33.185.004c5.922.006 11.843.008 17.765-.004q8.07-.014 16.14.007 2.91.004 5.822-.007c2.625-.01 5.25-.002 7.874.011l2.288-.022c4.712.049 7.965.86 11.946 3.397 2.112 3.168 2.332 5.132 2.559 8.867-.909 3.47-2.804 4.905-5.559 7.133-2.916.492-5.245.673-8.156.628l-2.492.022c-2.774.017-5.546 0-8.32-.018q-3.015.008-6.029.023c-5.557.02-11.114.01-16.672-.006-6.033-.012-12.066.005-18.099.018q-15.878.028-31.754.01a16085 16085 0 0 0-36.253 0l-8.76.01c-29.658.033-59.317.034-88.976.022l-12.3-.004-2.468-.001a82794 82794 0 0 0-61.504.006l-19.84.006-55.462.014h-2.552q-40.254.005-80.509-.008l-2.638-.001-42.42-.015q-84.126-.03-168.252.021l-42.398.025-2.637.001q-40.212.023-80.424.022h-2.55a285662 285662 0 0 1-80.153-.012c-26.219-.005-52.437.007-78.656.026a46181 46181 0 0 1-90.124-.019l-2.165-.002c-11.331-.01-22.663 0-33.994.018q-16.695.026-33.391-.013c-5.96-.014-11.918-.018-17.877.005q-8.12.029-16.239-.017a539 539 0 0 0-5.861.014c-2.64.02-5.279.003-7.92-.024l-2.309.044c-2.865-.06-5.157-.243-7.441-2.073-2.234-2.548-3.357-4.426-3.905-7.784.58-3.413 1.278-5.272 3.5-7.938 4.732-2.045 9.157-2.283 14.234-2.252"/><path fill="#eb2024" d="m685.234 292.953 2.243.629 2.273.668 2.227.621c6.152 1.757 11.973 3.93 18.023 6.129v46c-12.055 6.345-24.1 12.602-36.305 18.633a799 799 0 0 0-19.32 9.93c-13.278 7.035-26.764 13.664-40.218 20.354-14.526 7.222-29.018 14.487-43.335 22.118C559.565 424 559.565 424 557 424v-73c24.813-12.375 24.813-12.375 32.515-16.212 10.538-5.259 21.046-10.558 31.45-16.075 9.192-4.87 18.452-9.605 27.737-14.294a1288 1288 0 0 0 6.16-3.142c3.014-1.546 6.035-3.073 9.06-4.597l2.759-1.43c6.41-3.194 11.496-4.303 18.553-2.297"/><path fill="#000000" d="M1021.465 515.754c2.37.23 4.597.222 6.972.121 3.563.125 3.563.125 5.263 1.28 1.81 2.568 1.67 4.354 1.66 7.483l.013 3.556-.032 3.906v4.11c.002 3.72-.016 7.441-.037 11.162-.019 3.888-.02 7.776-.024 11.664-.01 7.363-.034 14.725-.064 22.088-.033 8.382-.05 16.764-.065 25.146-.031 17.244-.084 34.487-.151 51.73-4.838 2.601-7.505 3.264-13 2.625-5.091-.574-5.091-.574-10.125.086-2.875.289-2.875.289-5.457-.969-3.575-4.054-5.189-8.609-7.106-13.617l-1.181-2.973c-1.52-3.85-2.98-7.695-4.283-11.625-.743-2.213-1.585-4.063-2.723-6.09-2.385-4.592-3.71-9.416-5.098-14.386-1.023-3.039-2.381-5.313-4.027-8.051l-3-8-1 63c-6.762 3.38-6.762 3.38-10.059 3.398l-2.17.012-2.208-.035-2.198.035-2.174-.012-1.931-.01c-3.319-.57-6.19-2.039-9.26-3.388q-.035-25.388-.052-50.775a29347 29347 0 0 0-.023-23.577q-.015-10.278-.02-20.558 0-5.439-.01-10.878c-.009-4.055-.009-8.11-.009-12.165l-.01-3.614c.021-17.33.021-17.33 3.124-20.433 4.105-.485 8.244-.37 12.375-.375l3.484-.074 3.352-.012 3.072-.025c3.468.62 4.568 1.74 6.717 4.486 1.033 2.055 1.033 2.055 1.781 4.23l.864 2.436.855 2.521c2.23 6.42 4.667 12.634 7.5 18.813 3.415 7.692 6.59 15.29 8.945 23.379 1.224 3.042 2.974 5.107 5.055 7.621l-.02-2.258q-.09-10.527-.135-21.056-.022-5.412-.071-10.825c-.033-3.482-.05-6.963-.059-10.445a764 764 0 0 0-.055-5.928v-3.64l-.02-3.21c.36-2.638.36-2.638 1.721-4.457 4.47-3.222 9.974-2.054 15.104-1.427m-509.719-.887 2.322-.003q2.44 0 4.88.006 3.673.005 7.347-.007c7.867-.002 15.61.133 23.44 1.02 2.433.264 2.433.264 5.265-.883 7.289.42 12.092 2.67 17 8a175 175 0 0 1 4 5l2.5 2.25c7.368 8.105 7.101 17.038 6.967 27.425-.03 2.452-.021 4.9-.008 7.352a1647 1647 0 0 1-.025 4.73l.008 2.192c-.146 7.975-3.115 13.334-8.442 19.051l-2.312 1.563c-1.996 1.36-1.996 1.36-1.938 4.125L573 599l4 2v2l1.861.75c3.843 2.245 4.879 6.14 6.139 10.25.515 3.397.563 6.713.531 10.145l.012 2.824q.004 2.931-.022 5.862c-.021 2.991 0 5.98.026 8.972q-.004 2.857-.016 5.717l.025 2.702c-.093 6.14-.093 6.14-2.43 9.362-2.79 1.858-4.165 1.636-7.438 1.104-3.494-.474-5.906-.655-9.438-.125-3.917.527-6.56-.235-10.25-1.563-1.538-1.538-1.14-2.963-1.158-5.105l-.03-2.64-.023-2.872-.086-5.965q-.063-4.724-.104-9.448c-.028-3.03-.074-6.058-.122-9.087l-.01-2.86-.05-2.66-.025-2.339c-.496-2.562-1.299-3.497-3.392-5.024-2.01.268-4.01.61-6 1l-2.75-.5c-4.486-.69-8.784-.257-13.25.5-1.196.976-1.196.976-1.12 2.79l.006 2.363v2.669l.016 2.9.005 2.956c.005 3.128.018 6.256.03 9.385q.009 3.173.014 6.345.017 7.796.049 15.592c-8.349 5.012-16.174 5.356-25.75 3.063C499 659 499 659 497 658q-.141-26.886-.207-53.772c-.02-8.322-.049-16.644-.095-24.966q-.06-10.88-.074-21.76a1924 1924 0 0 0-.047-11.522q-.039-5.423-.03-10.844c-.001-1.96-.023-3.92-.045-5.88l.017-3.536-.011-3.073c.629-3.382 1.825-4.54 4.492-6.647 3.633-1.211 6.965-1.143 10.746-1.133m17.942 31.258c-4.152 4.612-2.909 12.532-2.938 18.375l-.062 3.129c-.203 7.267-.203 7.267 3.312 13.371 3.605 1.699 8.001 1.221 11.938 1.25l2.13.063c4.559.034 7.398-.396 10.932-3.313.773-3.115.773-3.115.664-6.715l.015-1.976q.005-2.067-.027-4.133c-.027-2.104 0-4.203.032-6.307q-.005-2.01-.02-4.021l-.017-3.688c-.38-3.336-.38-3.336-3.057-5.561-3.9-2.407-6.064-1.958-10.59-1.599l-2.125.563C538 546 538 546 535 545.375c-2.972-.649-2.972-.649-5.312.75M11.629 515.156l3.389.16q3.504.182 7.007.368c6.053.283 11.8.254 17.815-.475 2.922-.283 5.688-.05 8.597.291 4.344.501 4.344.501 8.563-.5 7.289.42 12.092 2.67 17 8a175 175 0 0 1 4 5l2.5 2.313c5.446 5.854 7.115 11.634 7.031 19.5l.012 2.464q.004 2.561-.022 5.122c-.02 2.595 0 5.186.026 7.78q-.004 2.505-.016 5.009l.025 2.317c-.112 6.53-2.027 11.929-6.661 16.632l-2.082 1.55c-2.665 1.993-3.663 2.762-4.551 6.02L74 599l2.125.563c4.553 2.276 7.56 5.963 9.937 10.436 1.352 4.325 1.263 8.466 1.274 12.974l.02 2.909q.015 3.038.015 6.074c.004 3.1.04 6.197.078 9.296q.009 2.955.012 5.908l.043 2.807c-.045 6.398-.045 6.398-2.39 9.64-2.655 1.75-3.77 1.647-6.864 1.08-3.354-.502-6.095-.71-9.437-.125-4.408.506-6.705-.053-10.813-1.562-1.538-1.538-1.14-2.963-1.158-5.105l-.03-2.64-.023-2.872-.086-5.965q-.063-4.724-.104-9.448c-.028-3.03-.074-6.058-.122-9.087l-.01-2.86-.05-2.66-.025-2.339c-.496-2.562-1.299-3.497-3.392-5.024-2.01.268-4.01.61-6 1a225 225 0 0 1-6-1c-4.32-.296-7.26-.493-11 2-.436 1.973-.436 1.973-.34 4.266v2.67l.047 2.884.013 2.951c.017 3.118.054 6.236.093 9.354q.022 3.165.04 6.332.052 7.771.147 15.543c-8.405 5.022-15.621 5.077-25.25 3.063C1 659 1 659 0 658a99 99 0 0 1-.14-5.377l-.018-3.535-.003-3.914-.015-4.094q-.019-5.576-.024-11.15-.005-3.481-.012-6.961-.02-10.88-.027-21.76-.007-12.577-.05-25.153-.033-9.71-.034-19.419 0-5.805-.025-11.608-.023-5.46-.01-10.918c.002-1.976-.012-3.952-.026-5.928.005-1.172.01-2.344.017-3.552l-.005-3.094C0 519 0 519 1.335 517.211c3.382-2.46 6.288-2.267 10.294-2.055m20.059 30.969c-4.152 4.612-2.909 12.532-2.938 18.375l-.062 3.129c-.203 7.267-.203 7.267 3.312 13.371 3.605 1.699 8.001 1.221 11.938 1.25l2.13.063c4.559.034 7.398-.396 10.932-3.313.773-3.115.773-3.115.664-6.715l.015-1.976q.005-2.067-.027-4.133c-.027-2.104 0-4.203.032-6.307q-.005-2.01-.02-4.021l-.017-3.688c-.38-3.336-.38-3.336-3.057-5.561-3.9-2.407-6.064-1.958-10.59-1.599l-2.125.563C40 546 40 546 37 545.375c-2.972-.649-2.972-.649-5.312.75M439 522a61 61 0 0 1 4.625 5.336c1.413 1.71 2.882 2.986 4.625 4.351 3.03 2.549 4.487 4.369 5.021 8.315l.03 2.15.048 2.484.02 2.7.046 2.864c.044 3.13.072 6.26.097 9.39l.028 3.25q.07 8.522.105 17.045c.028 5.844.107 11.687.198 17.53.06 4.514.08 9.027.089 13.541q.017 3.23.08 6.457c.221 11.828.11 20.6-7.515 30.038C441.025 653.037 435.5 658.369 428 661l-1-1c-3.62.151-7.218.406-10.83.684-5.968.417-5.968.417-8.17-.684-2.336.196-4.67.431-7 .688-6.827.59-12.099-.056-18-3.688-2.812-2.437-2.812-2.437-5-5l-2.812-2.687C373 647 373 647 373 645l-3-1c-4.076-5.363-4.576-10.99-4.502-17.502l-.016-2.772a888 888 0 0 1 .022-9.007q0-3.15-.005-6.298 0-6.587.034-13.173c.029-5.616.026-11.23.013-16.846-.007-4.332.001-8.665.014-12.997q.006-3.105 0-6.21c-.002-2.898.014-5.795.036-8.693l-.014-2.567c.07-5.614 1.053-9.819 3.418-14.935 2.75-2.5 2.75-2.5 4.332-3.652 1.995-1.612 3.481-3.428 5.106-5.41 4.016-4.61 7.128-7.7 13.437-8.137q3.335.014 6.668.129c3.36.068 6.554-.158 9.894-.492 11.439-.912 21.372-1.046 30.563 6.562m-41 23c-2.872 2.97-3.347 5.294-3.365 9.378l.037 2.138.004 2.28c.009 2.484.04 4.969.074 7.454l.042 5.19q.05 5.458.13 10.915.082 5.676.125 11.352.053 6.942.165 13.882.038 2.657.058 5.313c.021 2.476.067 4.95.12 7.426l.004 2.23c.094 3.222.188 4.994 2.43 7.399 3.206 1.537 5.953 1.402 9.488 1.356l3.864-.012c6.37-.412 6.37-.412 11.824-3.301.123-1.725.178-3.455.205-5.184l.06-3.362.051-3.677.063-3.782q.066-3.985.124-7.972c.058-4.016.124-8.032.19-12.048q.151-9.381.264-18.762.059-4.204.14-8.408.03-2.12.055-4.239l.059-3.435c-.246-3.657-1.094-6.647-2.211-10.131-6.344-2.115-11.517-1.93-18.145-1.191C401 546 401 546 398 545m376-26 3 1c3 3.444 3 3.444 3 6l3 1c3.995 3.585 8.445 7.627 9.352 13.14.112 2.382.096 4.726.023 7.11l-.004 2.469c-.09 6-.09 6-2.371 8.281-2.023.45-2.023.45-4.375.688l-2.336.261c-2.289.051-2.289.051-4.3-.469-2.372-.573-4.034-.278-6.427.145-2.984.353-4.508.391-7.437-.5-2.313-2.313-2.797-3.69-3.758-6.758l-.785-2.473L760 547a853 853 0 0 0-10.312-.687l-2.96-.221-2.841-.166-2.619-.175c-2.31.075-2.31.075-4.053 1.455-1.578 2.33-1.574 3.773-1.543 6.575l.015 2.801.063 2.918.016 2.918c.032 5.378.032 5.378 1.234 10.582.943-.01 1.886-.02 2.858-.032q5.27-.05 10.54-.078a944 944 0 0 0 4.553-.04 844 844 0 0 1 6.56-.045l3.984-.032c10.03.65 15.753 9.02 22.005 16.102 3.024 3.498 4.728 6.609 4.838 11.292l.068 2.459.035 2.636.042 2.743q.034 2.873.052 5.747c.027 2.909.102 5.814.178 8.723.218 15.607.218 15.607-4.08 21.173-1.86 1.846-1.86 1.846-3.633 3.352l-2.687 2.938C780 652 780 652 777.813 653.063c-1.996.783-1.996.783-2.606 2.886C774 658 774 658 771.617 659.047l-2.742.703-2.758.734L764 661l-1-1a80 80 0 0 0-4.8.41c-6.135.612-12.225.914-18.388 1.028l-3.115.138c-6.432.095-10.152-.748-15.07-4.986L720 655l-1.716-1.573C717 652 717 652 717 650l-1.77-.738c-5.03-2.846-8.644-8.152-10.168-13.637-.084-4.877-.141-9.747-.062-14.625 5.783-4.438 9.89-4.174 17.012-3.262 2.879.417 2.879.417 5.183-.289C729 617 729 617 732.187 618.5c2.813 2.5 2.813 2.5 3.688 6.25L736 628l2.625.438c2.031.338 4.057.72 6.063 1.187 3.09.35 5.897.397 9 .25l2.824-.133c2.661-.545 2.661-.545 4.3-2.906 3.23-7.714 1.31-17.012-.812-24.836l-3.215.477c-5.773.714-11.536.823-17.347.898l-3.327.113c-6 .065-10.122-.148-14.77-4.147-1.693-1.694-3.329-3.357-4.841-5.216-2.87-3.429-5.9-6.577-9.117-9.68-3.23-3.376-2.545-7.316-2.551-11.707l-.01-2.497q-.007-2.62-.007-5.243c-.002-2.658-.02-5.315-.04-7.973q-.005-2.55-.005-5.1l-.022-2.39c.042-10.393 3.725-16.787 10.814-24.222L718 523l2.625-2.687c4.374-4.26 4.374-4.26 8.352-4.473l3.648.097c5.725.108 11.353-.084 17.063-.5C768.109 514.21 768.109 514.21 774 519m-611.008-3.531 2.887-.016 2.996.047c.981-.015 1.962-.03 2.973-.047 5.759.031 9.867.283 14.152 4.547 1.102 3.145 1.102 3.145 1.625 6.813q.321 2.014.656 4.027l.336 2.081c.622 3.378 1.567 6.654 2.508 9.954 1.32 4.779 2.214 9.252 2.605 14.18.37 2.668 1.438 5.001 2.454 7.48 1.08 3.265 1.66 6.586 2.254 9.965.993 5.642 2.147 11.198 3.562 16.75l.52 2.038a1521 1521 0 0 0 2.261 8.68c1.823 7.053 3.261 14.151 4.662 21.296a501 501 0 0 0 3.744 17.361l.506 2.17c.872 3.7.872 3.7 2.307 7.205.353 6.47.353 6.47-2 10-1.892.448-1.892.448-4.176.547l-2.51.121-2.626.082-2.592.129c-10.141.424-10.141.424-13.784-2.004C185.559 654.939 185 650.707 185 646c-14.933-3.234-14.933-3.234-29 1-1.412 3.4-1.412 3.4-2 7-1.6 3.8-1.6 3.8-4 5-2.9.21-5.784.375-8.687.5-5.503.242-10.871.626-16.313 1.5-2.342-3.512-2.145-3.968-1.395-7.934l.611-3.25c1.453-7.075 2.95-14.14 4.505-21.195q.876-3.98 1.738-7.963a610 610 0 0 1 6.816-28.06c1.703-6.383 3.076-12.792 4.287-19.285 1.563-8.068 3.252-16.036 5.34-23.985.926-3.556 1.738-7.132 2.54-10.719l.779-3.425q.765-3.375 1.498-6.758l.719-3.13.62-2.8c1.908-5.058 4.597-7 9.934-7.027M169 584c-2.428 9.286-4.63 18.486-6 28 3.827 2.111 6.605 2.4 11 2 1.975-.906 1.975-.906 3-3a57.5 57.5 0 0 0-1.625-8.062l-.587-2.301c-1.444-5.588-3.007-11.146-4.788-16.637zm697.383-69.133 3.289-.004 3.453.012 3.383-.012c4.73.006 9.371.032 14.062.68 3.486.626 3.486.626 7.18-.106 3.388-.456 4.55-.438 7.25 1.563 4.768 7.152 3.04 19.744 2 28-1.655 5.89-4.79 10.848-8 16a126 126 0 0 0-2.312 5.25c-1.264 2.93-2.697 5.24-4.688 7.75a334 334 0 0 0-3 6c-8.29 16.91-8.29 16.91-11.895 22.129-1.301 2.203-2.234 4.514-3.22 6.871-1.658 3.747-3.634 7.33-5.572 10.938l-1.26 2.36A2955 2955 0 0 1 864 628l2 2c2.022-.228 4.044-.464 6.055-.777 2.232-.256 3.78.236 5.945.777 2.004-.259 4.008-.519 6.008-.805 2.8-.274 5.232.274 7.992.805 3.096.235 6.193.438 9.293.621C904 631 904 631 907 633c.388 2.259.388 2.259.398 5.05l.012 3.057-.035 3.206.035 3.17-.012 3.068-.01 2.802c-.478 3.26-1.289 5.101-3.388 7.647-2.422.583-2.422.583-5.32.523l-3.277-.033-3.528-.115-3.615-.058c-9.466-.18-18.934-.549-28.387-1.048l-2.963-.148-2.59-.143c-2.288.022-4.117.452-6.32 1.022l-6-1a207 207 0 0 0-7.828.258L832 660c-2.896-4.343-2.383-8.26-2.375-13.375l.003-3c.16-9.991 2.087-18.04 7.372-26.625l1-2.5c1-2.5 1-2.5 2.3-4.664 2.1-3.503 3.99-7.096 5.888-10.711l2.41-4.574 1.219-2.314c1.427-2.699 2.871-5.388 4.316-8.077 4.107-7.648 8.02-15.378 11.867-23.16l2.25-4.5L870 553l3-6c-3.486-1.137-6.316-.894-9.937-.5-5.889.532-11.416.295-17.286-.344-2.6-.146-4.3.205-6.777.844l-3-1-2.062-.187C832 545 832 545 830.75 542.563c-1.587-7.538-1.22-16.005.25-23.563l2-3c2.582-.325 2.582-.325 5.813-.258l3.507.043 3.68.09q3.594.065 7.188.117l3.23.074c3.486-.09 6.313-1.195 9.965-1.199m-576.237.817c3.303.248 5.678.375 8.854-.684 2.253.113 4.504.288 6.75.5 5.71.499 5.71.499 11.375-.062C320 515 320 515 322.312 515.75 324 517 324 517 326 520c.47 4.026.37 8.075.375 12.125l.074 3.344c.026 7.154-.99 12.278-4.449 18.531l-1.379 2.855-1.184 2.332a451 451 0 0 0-4.062 8.188C314 570 314 570 312.437 572.063c-1.508 1.853-1.508 1.853-2.222 3.968-1.752 4.282-3.93 8.318-6.09 12.407l-1.316 2.525c-1.854 3.521-3.713 6.895-5.942 10.197-2.08 3.164-3.416 6.345-4.867 9.84-1.71 3.493-3.506 6.942-5.303 10.39-2.125 4.093-2.125 4.093-2.697 8.61 3.343.074 5.804.065 9-1l1.687.5c2.903.628 5.412.11 8.32-.305 2.8-.274 5.233.274 7.993.805 3.096.235 6.193.438 9.293.621C323 631 323 631 326 633c.388 2.259.388 2.259.398 5.05l.012 3.057-.035 3.206.035 3.17-.022 5.87c-.478 3.26-1.289 5.101-3.388 7.647-2.422.583-2.422.583-5.32.523l-3.277-.033-3.528-.115-3.615-.058c-9.466-.18-18.934-.549-28.387-1.048l-2.963-.148-2.59-.143c-2.288.022-4.117.452-6.32 1.022l-6-1c-3.335-.09-6.664-.06-10 0-4.174-8.215-3.054-21.071-.938-29.812 2.218-6.725 5.612-12.96 8.938-19.188l2.129-4.016q2.026-3.81 4.074-7.609A281 281 0 0 0 268.5 593c1.685-3.37 3.463-6.684 5.25-10 3.894-7.265 7.593-14.613 11.25-22a6519 6519 0 0 1 3.937-7.875l1.778-3.555L292 547c-3.486-1.137-6.316-.894-9.938-.5-5.888.532-11.415.295-17.285-.344-2.6-.146-4.3.205-6.777.844l-3-1-2.063-.187C251 545 251 545 249.863 542.586c-1.134-4.712-.912-8.964-.613-13.774l.121-2.732c.369-6.69.369-6.69 2.629-10.08 2.582-.325 2.582-.325 5.812-.258l3.508.043 3.68.09q3.594.065 7.187.117l3.231.074c4.986-.127 9.487-.818 14.728-.382M1097 515c8.433 6.283 11.333 14.097 15.023 23.684.91 2.158 1.945 4.07 3.165 6.066 1.796 3.22 2.457 5.61 2.812 9.25h3l.781-2.422c1.471-4.318 3.078-8.572 4.719-12.828l.934-2.469.91-2.36.818-2.137C1130 530 1130 530 1132 528a253 253 0 0 0 2-6c1.357-3.392 2.682-5.34 6-7 2.002.194 4.007.398 5.988.742 2.778.356 5.263-.274 8.012-.742q3.502.491 7 1c2.812-.36 2.812-.36 5-1 1.947 6.166-.458 10.433-3 16l-1.937 4.375-1.008 2.234c-1.17 2.654-2.27 5.332-3.368 8.016-3.756 9.062-7.917 17.95-12.374 26.688-2.41 4.78-4.531 9.637-6.313 14.687l-.745 2.02c-2.358 6.959-2.62 13.256-2.478 20.558l.028 3.546c.03 3.71.08 7.417.132 11.126.048 3.723.092 7.446.123 11.169q.03 3.462.09 6.925c.094 10.006.094 10.006-2.15 14.656-5.28 4.138-10.573 4.166-17.062 3.75l-3.66-.203c-3.505-.585-4.775-1.099-7.278-3.547-.606-2.461-.606-2.461-.744-5.376l-.167-3.253a529 529 0 0 1-.187-16.355l.005-3.581c.005-3.728.018-7.457.03-11.185l.014-7.64q.017-9.306.049-18.61h-2c-2.404-4.598-4.39-9.056-6-14l-2-3a253 253 0 0 1-2-6l-1.125-2.687C1090 563 1090 563 1090 560h-2c-2.75-5.841-5.305-11.699-7.562-17.75-1.308-3.483-2.581-6.725-4.563-9.875-2.515-4.528-3.97-9.274-4.875-14.375l1-2 2.08.016q4.647.029 9.295.047l3.273.025 3.125.01 2.889.016c2.361.042 2.361.042 4.338-1.114m135.258.738c9.486.926 9.486.926 18.836-.308 1.906-.43 1.906-.43 4.09.015 4.721.93 9.517.517 14.31.34l2.354-.043 2.125-.067c2.776.445 4.063 1.323 6.027 3.325.518 2.388.518 2.388.531 5.184l.016 3.06-.047 3.193.047 3.182-.016 3.065-.013 2.798c-.682 3.315-1.828 4.508-4.518 6.518-2.227.406-2.227.406-4.625.285l-2.64-.08-2.735-.143a336 336 0 0 0-5.375-.214l-2.398-.125c-3.12.388-4.103.901-6.227 3.277-.588 3.324-.452 6.626-.375 9.992l.023 3.11q.028 3.346.082 6.693c.055 3.53.085 7.06.108 10.59.062 8.77.163 17.54.272 26.309.092 7.406.165 14.811.209 22.217.028 3.48.086 6.959.145 10.438q.022 3.2.04 6.4l.074 2.935c-.006 4.626-.057 6.638-2.955 10.406-6.214 4.524-14.783 3.184-22.123 2.66-3.148-.944-3.807-1.98-5.5-4.75-.385-2.179-.385-2.179-.399-4.581l-.038-2.77.005-3.017-.031-3.194c-.03-3.485-.04-6.969-.049-10.454l-.054-7.247c-.048-6.359-.077-12.717-.104-19.076-.03-6.489-.076-12.977-.121-19.466A15632 15632 0 0 1 1221 548c-3.555-2.05-5.53-1.87-9.574-1.238-5.084.5-11.812.906-16.238-1.918-1.72-2.67-1.71-4.943-1.876-8.094l-.187-3.52L1193 530l-.187-3.937c.208-3.403.719-5.98 2.187-9.063 4.84-1.774 10.41-1.419 15.5-1.625l3.298-.136c6.225-.225 12.263-.209 18.46.5M567 127c-3.326 2.727-6.701 5.226-10.312 7.563l-2.676 1.753c-7.278 4.069-15.105 5.78-23.137 7.746C506.432 150.258 482.989 158.677 460 169l-2.594 1.15c-39.546 17.643-76.93 42.851-108.648 72.31a203 203 0 0 1-6.57 5.79c-8.844 7.673-17.47 16.192-24.793 25.332-1.634 1.66-3.274 2.487-5.395 3.418l-6-5c4.018-5.586 8.32-10.707 13.063-15.687l1.968-2.082c16.362-17.225 16.362-17.225 25.047-24.583a135 135 0 0 0 4.031-3.609C401.985 177.82 493.703 125.057 567 127m134 0c8.81.465 17.161 1.633 25.75 3.625l3.527.805c49.672 11.548 97 30.555 139.723 58.57l2.172 1.424c17.311 11.448 33.928 24.237 49.246 38.24a197 197 0 0 0 4.256 3.765c5.723 4.898 11.06 10.152 16.372 15.486q2.272 2.279 4.554 4.548c5.34 5.338 10.538 10.752 15.4 16.537-2.51 5.18-2.51 5.18-5 7-2.838-.212-3.925-.928-5.988-2.914l-2.324-2.711c-5.347-6.053-10.973-11.819-16.67-17.538a989 989 0 0 1-2.985-3.01C922.373 244.08 915.415 237.92 908 232a280 280 0 0 1-3.285-2.828C887.053 213.77 867.245 200.742 847 189l-1.944-1.138c-34.737-20.24-72.809-36.37-112.181-44.737C721.098 140.583 709.66 135.66 701 127"/><path fill="#0089ce" d="M710 396v50h-97c2.527-2.527 3.969-3.677 7.02-5.226l2.464-1.262 2.684-1.352 2.823-1.438c3.062-1.56 6.13-3.11 9.197-4.66l6.347-3.225a5731 5731 0 0 1 47.184-23.679l2.41-1.198q2.202-1.095 4.406-2.184c2.841-1.413 5.605-2.861 8.314-4.515C708 396 708 396 710 396"/><path fill="#000000" d="m545.75 796.75 3.906-.062 3.766-.016 3.456-.028c4.878.557 7.412 2.68 10.907 6.004 2.976 3.775 2.858 7.332 2.653 11.977l-.018 2.273c-.084 3.777-.183 6.966-2.42 10.102l-2 1c.47 3.008.47 3.008 2.504 5.129 2.387 2.986 2.112 6.327 2.121 9.996l.01 2.31c-.19 6.031-1.73 9.625-5.908 14.096-3.38 2.875-5.903 2.586-10.266 2.567l-3.945-.01-4.141-.025-4.164-.014A3988 3988 0 0 1 532 862c-1.36-2.719-1.127-4.86-1.13-7.903l-.009-3.75.006-4.07q0-2.077-.003-4.154-.001-4.354.006-8.708.006-5.593-.004-11.185-.005-4.29 0-8.578l-.002-4.125q-.003-2.877.007-5.754l.002-3.312c.32-6.191 10.181-3.692 14.877-3.711M545 812a92 92 0 0 0-.062 5.063l.027 2.785L545 822c2.229 1.114 3.53 1.165 6 1.188l2.125.042c2.12-.065 2.12-.065 3.875-2.23.28-2.175.28-2.175.188-4.562l-.02-2.442c.048-1.995.048-1.995-1.168-2.996a81 81 0 0 0-5-.125l-2.75-.008c-2.22-.119-2.22-.119-3.25 1.133m0 25a81 81 0 0 0-.125 5l-.008 2.75c-.119 2.22-.119 2.22 1.133 3.25 2.068.2 2.068.2 4.438.188l2.433.042c2.345-.028 2.345-.028 4.129-2.23.243-2.21.243-2.21.125-4.625l-.055-2.477L557 837c-6.33-1.724-6.33-1.724-12 0m-169.25-40.25 3.906-.062 3.766-.016 3.456-.028c4.878.557 7.412 2.68 10.907 6.004 2.976 3.775 2.858 7.332 2.652 11.977l-.017 2.273c-.084 3.777-.183 6.966-2.42 10.102l-2 1c.47 3.008.47 3.008 2.504 5.129 2.387 2.986 2.112 6.327 2.121 9.996l.01 2.31c-.19 6.031-1.73 9.625-5.908 14.096-3.38 2.875-5.903 2.586-10.266 2.567l-3.945-.01-4.141-.025-4.164-.014A3988 3988 0 0 1 362 862c-1.36-2.719-1.127-4.86-1.13-7.903l-.009-3.75.006-4.07q0-2.077-.003-4.154-.002-4.354.006-8.708.006-5.593-.004-11.185-.005-4.29 0-8.578l-.002-4.125q-.002-2.877.007-5.754l.002-3.312c.32-6.191 10.181-3.692 14.877-3.711M375 812a92 92 0 0 0-.062 5.063l.027 2.785L375 822c2.229 1.114 3.53 1.165 6 1.188l2.125.042c2.12-.065 2.12-.065 3.875-2.23.023-2.45.023-2.45-.375-5.125l-.336-2.758L386 811a758 758 0 0 0-4.937-.062l-2.778-.036c-2.25-.161-2.25-.161-3.285 1.098m0 25a81 81 0 0 0-.125 5l-.008 2.75c-.119 2.22-.119 2.22 1.133 3.25 2.068.2 2.068.2 4.438.188l2.433.042c2.345-.028 2.345-.028 4.129-2.23.243-2.21.243-2.21.125-4.625l-.055-2.477L387 837c-6.33-1.724-6.33-1.724-12 0m112.813-40.187 3.931-.038 3.776-.005 3.471-.013c3.874.313 5.87 1.181 8.69 3.81 4.568 5.631 5.195 10.055 4.944 17.183l.02 2.824c-.107 6.729-.107 6.729-2.684 10.067L508 832a56.5 56.5 0 0 0 4 7c.243 2.344.243 2.344.23 5.07l-.005 2.965-.038 3.09-.001 3.113c-.046 7.622-.046 7.622-1.186 8.762-2.02.072-4.042.084-6.062.063l-3.348-.028L499 862c-.832-5.039-1.108-9.813-1.062-14.937l.013-2.073q.02-2.495.049-4.99h-11v21c-2.488 1.244-4.227 1.133-7 1.125l-2.687.008C475 862 475 862 473 861q-.034-12.296-.052-24.59-.007-5.71-.023-11.418-.016-5.505-.02-11.01-.003-2.105-.01-4.209a1622 1622 0 0 1-.009-5.876l-.006-3.385c.3-6.27 10.178-3.697 14.933-3.7M487 812a177 177 0 0 0-.062 7.063l.027 3.91L487 826h11c.984-6.478.984-6.478 1-13-1.784-2.202-1.784-2.202-4.129-2.23-1.205.02-1.205.02-2.433.043l-2.442.019c-1.995-.048-1.995-.048-2.996 1.168m169.625-15.562 3.816-.15c6.123-.068 10.523-.07 15.332 3.997 5.153 5.228 5.568 9.609 5.54 16.653l.048 2.42c.004 4.697-.3 7.837-3.361 11.642l-2 1c1.016 3.049 1.774 3.867 4 6 1.219 2.437 1.13 4.033 1.133 6.754l.004 2.838-.012 2.97.012 2.983-.004 2.834-.004 2.611C681 861 681 861 680 862c-1.998.099-4 .13-6 .125l-3.312.008C668 862 668 862 667 861a74 74 0 0 1-.316-4.473l-.127-2.724-.12-2.865-.13-2.877A2423 2423 0 0 1 666 841h-10l-.184 4.34-.254 5.597-.119 2.866-.127 2.724-.11 2.524C655 861 655 861 654 862c-1.81.125-3.624.176-5.437.188l-2.997.042C643 862 643 862 641 860c-.254-2.543-.254-2.543-.259-5.795l-.019-3.68.012-3.994-.005-4.08q-.005-4.277.01-8.554c.012-3.659.005-7.317-.007-10.976q-.009-4.213 0-8.426c.002-2.006-.004-4.013-.01-6.02l.02-3.68c0-1.073.002-2.146.004-3.252.725-7.256 10.409-5.042 15.879-5.106M655 812c-.099 2.165-.13 4.333-.125 6.5l-.008 3.594c-.2 2.799-.2 2.799 1.133 3.906 1.853.072 3.708.084 5.563.063l3.066-.028L667 826q.039-3.469.063-6.937l.035-3.903c.267-3.023.267-3.023-1.098-4.16a81 81 0 0 0-5-.125l-2.75-.008c-2.22-.119-2.22-.119-3.25 1.133m188-15c4.793 2.365 7.097 5.645 10 10 .288 2.015.288 2.015.338 4.344l.068 2.652.035 2.86.042 2.956q.034 3.1.052 6.2c.027 3.147.102 6.29.178 9.435q.025 3.017.04 6.033l.091 2.83c-.042 6.402-1.637 9.586-6.103 14.167-5.464 4.78-12.71 4.229-19.608 4.046-4.81-.382-7.53-2.162-10.785-5.699-2.406-3.256-3.599-5.14-3.686-9.168l-.068-2.652-.035-2.86-.042-2.956q-.034-3.1-.052-6.2a607 607 0 0 0-.178-9.435q-.025-3.017-.04-6.033l-.091-2.83c.042-6.368 1.605-9.554 6.046-14.115 6.344-5.56 15.758-4.864 23.798-3.575m-15 14c-1.859 12.316-.762 24.629 0 37q2.469.039 4.938.063l2.777.035c2.25.161 2.25.161 3.285-1.098.1-2.582.14-5.136.133-7.719l.003-2.342q0-2.457-.006-4.913-.005-3.772.007-7.546 0-2.38-.004-4.761l.006-2.295c.306-3.504.306-3.504-1.139-6.424a92 92 0 0 0-5.062-.062l-2.786.027zm-68.496-14.098 3.058.035 3.067.028L768 797c2.644 4.944 2.225 9.868 2.125 15.313l-.027 2.822c-.024 2.288-.06 4.577-.098 6.865h11l-.035-5.215-.028-6.722-.025-3.444-.01-3.271-.016-3.031C781 798 781 798 782 797a87 87 0 0 1 5.438-.187l2.996-.043C793 797 793 797 795 799c.247 2.588.247 2.588.243 5.903l.01 3.75-.023 4.07v4.154q-.003 4.354-.024 8.708a2317 2317 0 0 0-.02 11.185q-.001 4.29-.013 8.578l-.006 4.125q-.005 2.877-.022 5.754l-.011 3.312C795 861 795 861 794 862c-1.998.099-4 .13-6 .125l-3.312.008C782 862 782 862 781 861a99 99 0 0 1-.098-5.348l.01-3.271.025-3.443.014-3.456q.018-4.241.049-8.482h-10c-1.153 3.46-1.063 6.107-1 9.75.035 4.884 0 9.468-1 14.25-1 1-1 1-3.469 1.133l-3.031-.008-3.031.008C757 862 757 862 756 861c-.1-1.958-.128-3.92-.13-5.88l-.009-3.813.006-4.15q0-2.114-.003-4.227-.001-4.433.006-8.867.006-5.695-.004-11.39-.005-4.365 0-8.73l-.002-4.2q-.003-2.931.007-5.862l.002-3.376c.171-3.373.254-3.47 3.63-3.603m-41.69-.277 2.736-.113c6.741-.09 6.741-.09 10.447 2.926L733 802l2.25 1.375c2.72 2.527 2.56 5.028 2.75 8.625-.437 2.438-.437 2.438-1 4-4.297 1.011-8.917 2.041-13 0l-1-4h-10v11l2.563-.5c4.56-.663 8.577-1.244 12.937.5l2.5 2 1.863 1.313c3.783 3.275 5.277 6.26 5.793 11.19q.119 2.53.157 5.06l.071 2.47c-.122 5.642-1.566 8.65-5.405 12.768C732 859 732 859 730 859v2c-17.99 2.879-17.99 2.879-24.234-.047-1.641-1.328-1.641-1.328-3.766-3.953v-2h-2c-2.325-3.633-2.393-6.76-2-11 3.943-2.629 7.352-2.908 12-2l1.438 2.5L713 847c3.433.477 6.513.226 10 0v-10l-3.184.098c-6.724.028-12.86-.049-18.316-4.41-5.022-6.01-4.855-13.474-4.34-20.958.71-5.444 2.805-8.71 6.895-12.367 4.403-3.086 8.52-2.657 13.758-2.738m168.75-.125 3.83-.164c6.179-.09 10.556-.138 15.384 4.008 5.675 5.88 5.678 10.465 5.785 18.343l.15 3.225c.076 5.759-.26 9.297-4.122 13.733A99 99 0 0 1 904 839l-2 2a106 106 0 0 1-8.125.125L886 841v20c-2.623 1.312-4.637 1.133-7.562 1.125l-3.004.008C873 862 873 862 872 861c-.1-1.958-.128-3.92-.13-5.88l-.009-3.813.006-4.15q0-2.114-.003-4.227-.001-4.433.006-8.867.006-5.695-.004-11.39-.005-4.365 0-8.73l-.002-4.2q-.003-2.931.007-5.862l.002-3.376c.315-6.216 9.94-3.92 14.69-4.005M887 811c-2.147 4.294-2.125 5.648-1.625 10.25l.336 3.266L886 827h11v-16zm-291.881-14.139 2.162.006 2.208-.003q2.316 0 4.63.006 3.556.005 7.111-.007 2.245 0 4.489.004l2.162-.006c5.004.024 5.004.024 6.119 1.139.099 1.998.13 4 .125 6l.008 3.312C624 810 624 810 623 811a69 69 0 0 1-4.473.098l-2.724-.01-2.865-.026-2.877-.013q-3.531-.02-7.061-.049v11l5.125-.125c4.359-.011 7.822.372 11.875 2.125v11c-4.573 1.829-6.602 2.229-11.312 2.125l-3.239-.055L603 837v11l4.086-.035 5.289-.028 2.695-.025 2.578-.01 2.38-.016C622 848 622 848 624 849v12c-2.947 1.474-5.93 1.142-9.16 1.133l-2.137.003q-2.235 0-4.47-.006-3.435-.005-6.868.007-2.169 0-4.338-.004l-2.086.006c-4.826-.024-4.826-.024-5.941-1.139-.1-1.958-.128-3.92-.13-5.88l-.009-3.813.006-4.15q0-2.114-.003-4.227-.002-4.433.006-8.867.006-5.695-.004-11.39-.005-4.365 0-8.73l-.002-4.2q-.003-2.931.007-5.862l.002-3.376c.227-4.485 2.26-3.625 6.246-3.644M430 797q2.655-.079 5.313-.125l2.988-.07C441 797 441 797 444 799c.888 2.66.888 2.66 1.613 6.063l.836 3.818.863 4.119q.453 2.097.909 4.193.7 3.214 1.392 6.43c1.747 8.117 3.668 16.192 5.609 24.264l.712 3.027.626 2.624A30.8 30.8 0 0 1 457 861c-1.738 1.738-4.079 1.172-6.437 1.188l-2.997.042C445 862 445 862 443 860c-.625-2.125-.625-2.125-1-4a248 248 0 0 0-4.312-.625l-2.426-.352c-2.55-.238-2.55-.238-5.262 1.977l-1 4-13 1c-1.002-4.01-.924-5.37-.031-9.242l.721-3.19.81-3.443.817-3.563q.872-3.788 1.755-7.573a1698 1698 0 0 0 2.345-10.22q.934-4.107 1.876-8.212.454-1.986.906-3.973.636-2.79 1.285-5.58l.742-3.224c.691-2.484 1.524-4.536 2.774-6.78m6 33c-1.802 3.83-2.196 6.781-2 11l5-1-2-10z"/><path fill="#eb2024" d="M791 176h1c.801 5.003 1.196 9.91 1.312 14.978l.062 2.362q.098 3.923.18 7.844l.064 2.799c.548 24.738.534 49.48.512 74.223q-.006 9.82.004 19.639c.018 24.012-.01 48.02-.58 72.026l-.058 2.558c-.236 9.885-.686 19.714-1.496 29.571h-1c-1.067-17.959-1.316-35.92-1.533-53.905l-.093-7.503c-.517-41.424-.833-82.858.063-124.28l.06-2.757c.28-12.531.823-25.04 1.503-37.555"/><path fill="#0089ce" d="M476 176h1c.898 22.03 1.281 44.05 1.532 66.094q.062 5.165.129 10.328.208 16.289.339 32.578l.018 2.219c.186 24.21-.314 48.39-.945 72.591q-.185 7.173-.362 14.346Q477.362 388.08 477 402l-2-1a5535 5535 0 0 1-1-42l-.08-3.89c-.743-36.565-1.056-73.102-.545-109.673l.032-2.375c.225-16.337.538-32.672 1.008-49.003l.118-4.263q.08-2.924.173-5.847l.099-3.347C475 178 475 178 476 176m-22 9h1c1.207 6.859 1.357 13.742 1.555 20.691l.063 2.156c.682 24.012.532 48.042.51 72.062q-.005 8.998.006 17.996c.018 24.703-.022 49.401-.58 74.099l-.058 2.74q-.084 3.755-.184 7.508l-.05 2.184c-.106 3.625-.42 7.033-1.262 10.564h-1c-1.382-38.678-2.431-77.292-2-116l.044-3.919c.113-9.985.248-19.97.394-29.956l.03-2.057c.28-19.368.792-38.713 1.532-58.068"/><path fill="#eb2024" d="M813 185h1c.972 9.811 1.32 19.611 1.555 29.46l.063 2.577c.527 21.912.534 43.825.512 65.742q-.006 8.529.004 17.058c.02 23.046-.1 46.083-.58 69.124l-.058 2.984a2457 2457 0 0 1-.184 8.283l-.05 2.441c-.109 4.2-.45 8.193-1.262 12.331h-1c-2.048-51.755-2.307-103.397-1.562-155.187l.03-2.103c.248-17.584.683-35.144 1.532-52.71"/><path fill="#0089ce" d="M433 198h1c.815 10.894 1.301 21.767 1.563 32.688l.063 2.605c.905 38.783.494 77.59-.032 116.375l-.09 6.94q-.072 5.483-.157 10.965-.043 2.964-.081 5.927A277 277 0 0 1 434 396h-1c-.827-10.264-1.29-20.51-1.555-30.8l-.063-2.391c-.489-18.769-.54-37.534-.51-56.308l.007-8.204c.015-22.248.108-44.49.558-66.735l.06-3.014c.21-10.215.548-20.371 1.503-30.548"/><path fill="#eb2024" d="m834 198 2 1c1.39 51.928 2.464 103.748 1.087 155.684a4229 4229 0 0 0-.241 9.665A3710 3710 0 0 1 836 395l-2 1q-.4-13.5-.782-27-.179-6.273-.364-12.548c-.914-30.88-.978-61.686-.417-92.577l.135-7.706A4093 4093 0 0 1 834 198"/><path fill="#0089ce" d="M412 217h1a929 929 0 0 1 1.563 33.938l.063 2.302c1.013 37.553.289 75.243-1.626 112.76h-1c-5.232-21.028-2.156-46.321-2.13-67.89q.006-7.303-.004-14.605c-.017-17.553-.001-35.1.58-52.646l.117-3.625c.307-7.974.307-7.974 1.437-10.234"/><path fill="#eb2024" d="M856 217h1c1.845 35.603 2.28 70.926 1.563 106.563l-.06 2.96A1132 1132 0 0 1 857 366h-1c-.924-6.512-1.317-12.968-1.555-19.54l-.127-3.512c-.498-15.378-.469-30.76-.448-46.144q.006-6.462-.004-12.923c-.018-16.167.04-32.323.58-48.483l.117-3.577c.192-5.039.537-9.851 1.437-14.821"/><path fill="#0089ce" d="M390 227c2.278 3.643 2.443 7.221 2.617 11.402l.114 2.441c.55 13.865.418 27.76.4 41.633q-.007 6.324.003 12.648c.018 15.388-.01 30.772-.517 46.153l-.092 3.26-.115 2.932-.093 2.527C392 352 392 352 390 354c-1.703-29.783-2.289-59.296-1.562-89.125l.058-2.436c.296-11.826.831-23.629 1.504-35.439"/><path fill="#eb2024" d="M877 227h1c.915 6.463 1.308 12.87 1.555 19.39l.127 3.308c.428 12.018.472 24.028.443 36.052l-.005 3.437c-.024 15.128-.143 30.252-.495 45.375l-.046 2.353q-.069 3.233-.165 6.464l-.095 3.611c-.303 2.863-.828 4.582-2.319 7.01-2.194-32.091-2.348-63.978-1.562-96.125l.058-2.459c.237-9.503.653-18.945 1.504-28.416m-103 45q-.165 14.635-.34 29.271-.08 6.804-.157 13.607c-.285 25.381-.78 50.75-1.503 76.122l-2-1q-.396-17.175-.782-34.351-.179-7.98-.364-15.96a7912 7912 0 0 1-.703-32.972 1940 1940 0 0 0-.258-12.057c-.087-3.47-.15-6.94-.206-10.41l-.09-2.847c-.054-5.902-.054-5.902 2.298-8.481C772 272 772 272 774 272"/><path fill="#0089cf" d="m495 273 5 2c.88 9.244 1.087 18.345.914 27.625q-.033 2.077-.063 4.153-.086 5.486-.186 10.97-.08 4.526-.151 9.051c-.354 21.738-.807 43.472-1.514 65.201-2.275-3.64-2.301-6.794-2.394-11.032l-.054-2.13c-.057-2.335-.1-4.67-.142-7.006l-.111-4.97c-.116-5.287-.21-10.574-.299-15.862l-.044-2.612c-.199-12.029-.35-24.057-.488-36.086q-.079-6.692-.161-13.382-.158-12.96-.307-25.92"/><path fill="#eb2024" d="m898 241 2 1c1.007 15.51 1.157 30.987 1.13 46.527q-.006 5.046.004 10.09c.02 14.493-.13 28.922-1.134 43.383l-2 1q-.437-7.195-.854-14.392-.144-2.434-.292-4.87c-1.022-16.802-1-33.48-.417-50.3l.067-2.005c.34-10.155.788-20.297 1.496-30.433"/><path fill="#0089cd" d="M369 241h1c4.152 26.34 2.31 54.166 1.563 80.75l-.06 2.21q-.086 3.105-.187 6.212l-.11 3.565c-.199 3.15-.628 6.163-1.206 9.263h-1c-2.575-26.755-2.39-53.412-1.562-80.25l.118-3.854c.214-6.025.561-11.931 1.444-17.896"/><path fill="#eb2024" d="M920 262h1c1.054 10.379 1.155 20.691 1.13 31.113-.005 2.778 0 5.555.007 8.332q0 2.68-.004 5.36l.006 2.484c-.019 4.674-.364 9.1-1.139 13.711-5.353-5.353-3.129-19.578-3.137-26.855l.012-3.645-.012-3.645c.025-22.63.025-22.63 2.137-26.855"/><path fill="#008acf" d="M348 262h1c1.029 10.22 1.155 20.368 1.13 30.631q-.005 4.041.007 8.082 0 2.607-.004 5.213l.006 2.402c-.02 4.974-.434 9.748-1.139 14.672l-2-1c-3.188-15.607-1.415-33.629-.562-49.437l.118-2.22c.188-2.99.491-5.485 1.444-8.343"/><path fill="#008ace" d="M497 177h1c.956 13.678 1.12 27.291 1 41l-3 1q-.037-6.803-.055-13.605-.008-2.308-.02-4.617c-.045-7.985-.07-15.854 1.075-23.778"/><path fill="#eb2024" d="M770 177h2l1 42-3-1z"/></svg>